<svg width="147" height="24" viewBox="0 0 147 24" fill="none" xmlns="http://www.w3.org/2000/svg">
<path d="M0.340847 23V1.145H10.3538C12.6892 1.145 14.4872 1.65133 15.7478 2.664C17.0292 3.67667 17.6698 5.06133 17.6698 6.818C17.6698 7.97533 17.3805 8.97767 16.8018 9.825C16.2232 10.6517 15.4172 11.2717 14.3838 11.685C15.6238 12.0363 16.5745 12.6563 17.2358 13.545C17.9178 14.4337 18.2588 15.529 18.2588 16.831C18.2588 18.7737 17.5768 20.2927 16.2128 21.388C14.8695 22.4627 13.0302 23 10.6948 23H0.340847ZM4.92885 10.135H9.51685C11.8728 10.135 13.0508 9.22567 13.0508 7.407C13.0508 5.609 11.8728 4.71 9.51685 4.71H4.92885V10.135ZM4.92885 19.435H10.0438C11.2838 19.435 12.1932 19.1973 12.7718 18.722C13.3505 18.2467 13.6398 17.5233 13.6398 16.552C13.6398 15.6013 13.3505 14.8883 12.7718 14.413C12.1932 13.9377 11.2838 13.7 10.0438 13.7H4.92885V19.435ZM26.4237 23L36.4677 1.145H40.3427L50.3867 23H45.5507L43.5047 18.257H33.3057L31.2907 23H26.4237ZM38.3587 6.26L34.9177 14.506H41.9237L38.4207 6.26H38.3587ZM66.9451 23.341C65.2297 23.341 63.6074 23.124 62.0781 22.69C60.5694 22.256 59.3087 21.667 58.2961 20.923L59.6911 17.141C60.6624 17.823 61.7681 18.3603 63.0081 18.753C64.2687 19.1457 65.5811 19.342 66.9451 19.342C68.4331 19.342 69.4974 19.1147 70.1381 18.66C70.7994 18.1847 71.1301 17.5957 71.1301 16.893C71.1301 16.2937 70.9027 15.8183 70.4481 15.467C69.9934 15.1157 69.1977 14.816 68.0611 14.568L64.5581 13.824C60.6521 12.9973 58.6991 10.972 58.6991 7.748C58.6991 6.36333 59.0711 5.15433 59.8151 4.121C60.5591 3.067 61.5924 2.25067 62.9151 1.672C64.2584 1.09333 65.8084 0.803999 67.5651 0.803999C69.0737 0.803999 70.4894 1.021 71.8121 1.455C73.1347 1.889 74.2301 2.49867 75.0981 3.284L73.7031 6.818C72.0084 5.47467 69.9521 4.803 67.5341 4.803C66.2321 4.803 65.2194 5.06133 64.4961 5.578C63.7934 6.074 63.4421 6.725 63.4421 7.531C63.4421 8.13033 63.6591 8.616 64.0931 8.988C64.5271 9.36 65.2814 9.65967 66.3561 9.887L69.8591 10.631C73.8684 11.499 75.8731 13.4623 75.8731 16.521C75.8731 17.885 75.5011 19.0837 74.7571 20.117C74.0337 21.1297 73.0004 21.9253 71.6571 22.504C70.3344 23.062 68.7637 23.341 66.9451 23.341ZM86.1224 23V1.145H90.9274V23H86.1224ZM113.027 23.341C110.671 23.341 108.656 22.876 106.982 21.946C105.308 21.016 104.017 19.714 103.107 18.04C102.219 16.3453 101.774 14.351 101.774 12.057C101.774 9.78367 102.219 7.81 103.107 6.136C104.017 4.44133 105.308 3.129 106.982 2.199C108.656 1.269 110.671 0.803999 113.027 0.803999C114.474 0.803999 115.859 1.03133 117.181 1.486C118.504 1.94067 119.589 2.56067 120.436 3.346L118.948 7.159C118.018 6.43567 117.078 5.90867 116.127 5.578C115.197 5.22667 114.216 5.051 113.182 5.051C111.095 5.051 109.514 5.66067 108.439 6.88C107.385 8.07867 106.858 9.80433 106.858 12.057C106.858 14.3097 107.385 16.0457 108.439 17.265C109.514 18.4843 111.095 19.094 113.182 19.094C114.216 19.094 115.197 18.9287 116.127 18.598C117.078 18.2467 118.018 17.7093 118.948 16.986L120.436 20.799C119.589 21.5637 118.504 22.1837 117.181 22.659C115.859 23.1137 114.474 23.341 113.027 23.341ZM138.014 23.341C136.298 23.341 134.676 23.124 133.147 22.69C131.638 22.256 130.377 21.667 129.365 20.923L130.76 17.141C131.731 17.823 132.837 18.3603 134.077 18.753C135.337 19.1457 136.65 19.342 138.014 19.342C139.502 19.342 140.566 19.1147 141.207 18.66C141.868 18.1847 142.199 17.5957 142.199 16.893C142.199 16.2937 141.971 15.8183 141.517 15.467C141.062 15.1157 140.266 14.816 139.13 14.568L135.627 13.824C131.721 12.9973 129.768 10.972 129.768 7.748C129.768 6.36333 130.14 5.15433 130.884 4.121C131.628 3.067 132.661 2.25067 133.984 1.672C135.327 1.09333 136.877 0.803999 138.634 0.803999C140.142 0.803999 141.558 1.021 142.881 1.455C144.203 1.889 145.299 2.49867 146.167 3.284L144.772 6.818C143.077 5.47467 141.021 4.803 138.603 4.803C137.301 4.803 136.288 5.06133 135.565 5.578C134.862 6.074 134.511 6.725 134.511 7.531C134.511 8.13033 134.728 8.616 135.162 8.988C135.596 9.36 136.35 9.65967 137.425 9.887L140.928 10.631C144.937 11.499 146.942 13.4623 146.942 16.521C146.942 17.885 146.57 19.0837 145.826 20.117C145.102 21.1297 144.069 21.9253 142.726 22.504C141.403 23.062 139.832 23.341 138.014 23.341Z" fill="#161616"/>
</svg>
